<?xml version="1.0" standalone="no"?>
<!DOCTYPE svg PUBLIC "-//W3C//DTD SVG 20010904//EN"
 "http://www.w3.org/TR/2001/REC-SVG-20010904/DTD/svg10.dtd">
<svg version="1.0" xmlns="http://www.w3.org/2000/svg"
 width="1200.000000pt" height="1200.000000pt" viewBox="0 0 1200.000000 1200.000000"
 preserveAspectRatio="xMidYMid meet">
<metadata>
Created by potrace 1.11, written by Peter Selinger 2001-2013
</metadata>
<g transform="translate(0.000000,1200.000000) scale(0.100000,-0.100000)"
fill="#000000" stroke="none">
<path d="M2480 9103 c-81 -26 -148 -84 -179 -152 -14 -33 -16 -305 -17 -2992
0 -2398 2 -2964 12 -3000 17 -58 69 -118 130 -149 l49 -25 3758 -3 3757 -2 0
3074 c0 2781 -2 3078 -16 3112 -20 49 -79 111 -123 130 -29 12 -548 14 -3695
13 -2013 0 -3668 -3 -3676 -6z"/>
</g>
</svg>
