<?xml version="1.0"?>
<svg xmlns="http://www.w3.org/2000/svg" id="Capa_1" enable-background="new 0 0 512 512" height="512px" viewBox="0 0 512 512" width="512px" class=""><g><g><path d="m512 256c0 73.607-31.066 139.959-80.801 186.659-45.796 43.001-107.422 4.915-175.199 4.915s-129.403 38.087-175.199-4.915c-49.735-46.7-80.801-113.052-80.801-186.659 0-141.385 114.615-256 256-256s256 114.615 256 256z" fill="#90d8f9" data-original="#90D8F9" class="active-path" style="fill:#00AF80" data-old_color="#90d8f9"/><g><path d="m431.2 442.66c-10.183 9.558-21.148 18.294-32.79 26.101-56.976 0-89.701-.65-142.41-.65-15.53 0-30.73-1.38-45.5-4.04-35.356-6.341-68.196 23.944-96.921 4.681-11.637-7.804-22.599-16.537-32.779-26.091 20.39-97.72-4.98-173.1-10.35-227.33-.01-.03-.01-.06-.01-.09l73.25-8.15 112.31-12.491 185.55 20.64h.01c-5.35 54.24-30.76 129.65-10.36 227.42z" fill="#da8f35" data-original="#DA8F35" class=""/><path d="m443.58 187.59c0 9.39-.69 18.63-2.03 27.65-13.36 90.49-91.35 159.93-185.56 159.93-8.3 0-16.48-.54-24.5-1.59-82.92-10.81-148.82-75.78-161.04-158.25-.01-.03-.01-.06-.01-.09-1.34-9.02-2.03-18.26-2.03-27.65 0-103.6 83.98-187.59 187.58-187.59 103.61 0 187.59 83.99 187.59 187.59z" fill="#da8f35" data-original="#DA8F35" class=""/><path d="m231.49 373.58 27.32 51.81-48.31 82.57c-49.68-8.91-94.39-32.16-129.7-65.3 20.39-97.72-4.98-173.1-10.35-227.33-.01-.03-.01-.06-.01-.09-1.34-9.02-2.03-18.26-2.03-27.65 0-103.6 83.98-187.59 187.58-187.59-29.1 0-39.61 47.49 3.49 61.59l-122.38 133.01 6.59 12.49z" fill="#c47528" data-original="#C47528" class=""/><path d="m398.41 468.76c-12.34 8.28-25.44 15.52-39.18 21.57-10.65 4.7-21.68 8.7-33.03 11.92-22.3 6.35-45.85 9.75-70.2 9.75-24.34 0-47.89-3.4-70.2-9.74-7.24-2.06-14.36-4.44-21.33-7.12-.43-.16-.86-.32-1.29-.49-3.51-1.36-6.98-2.81-10.41-4.32-13.74-6.06-26.84-13.29-39.19-21.58 10.39-14.37 23.76-26.43 39.19-35.32 10.2-5.87 21.3-10.34 33.03-13.15 1.81-.44 3.64-.84 5.48-1.19 3.47-.68 7-1.2 10.57-1.57 1.03-.11 2.05-.21 3.09-.29 3.38-.28 6.8-.42 10.26-.42h81.59c4.52 0 8.97.24 13.35.7 3.57.37 7.09.9 10.57 1.56 1.39.27 2.77.56 4.14.87.45.12.91.21 1.35.33 11.74 2.82 22.83 7.29 33.03 13.16 15.43 8.9 28.79 20.96 39.18 35.33z" fill="#dd5790" data-original="#DD5790" class=""/><path d="m215.2 416.81c-29.36 0-49.26 42.43-50.73 78.33-.43-.16-.86-.32-1.29-.49-3.51-1.36-6.98-2.81-10.41-4.32-13.74-6.06-26.84-13.29-39.19-21.58 10.39-14.37 23.76-26.43 39.19-35.32 10.2-5.87 21.3-10.34 33.03-13.15 1.81-.44 3.64-.84 5.48-1.19 3.47-.68 7-1.2 10.57-1.57 1.03-.11 2.05-.21 3.09-.29 3.38-.28 6.8-.42 10.26-.42z" fill="#da387d" data-original="#DA387D"/><path d="m320.71 419.07v4.34c0 28.54-18.32 53.38-45.59 61.81-6.17 1.92-12.61 2.89-19.13 2.89-35.68 0-64.71-29.03-64.71-64.7v-4.32c3.47-.68 7-1.2 10.57-1.57 1.03-.11 2.05-.21 3.09-.29 3.38-.28 6.8-.42 10.26-.42h81.59c4.52 0 8.97.24 13.35.7 3.57.37 7.09.9 10.57 1.56z" fill="#ffddce" data-original="#FFDDCE" class=""/><path d="m300.706 368.538v54.869c0 20.088-13.245 37.067-31.489 42.707-4.176 1.296-8.627 1.997-13.23 1.997-24.691 0-44.703-20.012-44.703-44.703v-54.869h89.422z" fill="#ffcbbe" data-original="#FFCBBE" class=""/><path d="m300.706 419.932v3.475c0 20.088-13.245 37.067-31.489 42.707-16.461-5.06-28.837-19.372-31.123-36.884 2.987.183 5.99.274 9.008.274 8.459 0 16.75-.671 24.828-1.997 9.953-1.6 19.57-4.161 28.776-7.575z" fill="#ffddce" data-original="#FFDDCE" class=""/><g><path d="m132.54 278.153c0 20.497-14.973 37.492-34.579 40.646-2.143.347-4.347.528-6.596.528-22.746 0-41.175-18.429-41.175-41.175s18.429-41.175 41.175-41.175c2.249 0 4.453.181 6.596.528 19.606 3.156 34.579 20.152 34.579 40.648z" fill="#ffddce" data-original="#FFDDCE" class=""/><path d="m132.54 278.153c0 20.497-14.973 37.492-34.579 40.646-3.562-12.95-5.464-26.579-5.464-40.646s1.902-27.696 5.464-40.646c19.606 3.154 34.579 20.15 34.579 40.646z" fill="#ffcbbe" data-original="#FFCBBE" class=""/><circle cx="91.365" cy="278.153" fill="#ffcbbe" r="14.716" data-original="#FFCBBE" class=""/><path d="m379.449 278.153c0 20.497 14.973 37.492 34.579 40.646 2.143.347 4.347.528 6.596.528 22.746 0 41.175-18.429 41.175-41.175s-18.429-41.175-41.175-41.175c-2.249 0-4.453.181-6.596.528-19.606 3.156-34.579 20.152-34.579 40.648z" fill="#ffddce" data-original="#FFDDCE" class=""/><g fill="#ffcbbe"><path d="m379.449 278.153c0 20.497 14.973 37.492 34.579 40.646 3.562-12.95 5.464-26.579 5.464-40.646s-1.902-27.696-5.464-40.646c-19.606 3.154-34.579 20.15-34.579 40.646z" data-original="#FFCBBE" class=""/><circle cx="420.624" cy="278.153" r="14.716" data-original="#FFCBBE" class=""/></g></g><path d="m410.7 199.66v56.85c0 76.99-56.24 140.85-129.88 152.71-7.86 1.29-15.93 1.96-24.16 1.99-85.45.36-155.37-70.64-155.37-156.09v-55.46c0-82.67 67.01-149.68 149.68-149.68h10.05c35.55 0 68.2 12.39 93.88 33.09 34.03 27.44 55.8 69.47 55.8 116.59z" fill="#ffddce" data-original="#FFDDCE" class=""/><path d="m283.243 408.81c-.8.14-1.61.28-2.42.41-8.08 1.32-16.37 1.99-24.83 1.99-85.44 0-154.7-69.25-154.7-154.7v-57.917l54.55-99.583v157.5c0 76.14 54.98 139.41 127.4 152.3z" fill="#ffcbbe" data-original="#FFCBBE" class=""/><path d="m325.517 95.756s-39.903 98.195-227.556 141.751l3.332-75.235 32.039-65.658 167.374-41.308z" fill="#c47528" data-original="#C47528" class=""/><g><path d="m343.992 244.327c0-17.807-14.435-32.243-32.243-32.243-17.807 0-32.243 14.435-32.243 32.243z" fill="#ffcbbe" data-original="#FFCBBE" class=""/><circle cx="311.75" cy="258.054" fill="#353a3d" r="22.023" data-original="#353A3D" class=""/><circle cx="320.928" cy="254.168" fill="#fff" r="9.437" data-original="#FFF" class=""/><path d="m232.482 244.327c0-17.807-14.435-32.243-32.243-32.243s-32.243 14.435-32.243 32.243z" fill="#ffcbbe" data-original="#FFCBBE" class=""/><circle cx="200.24" cy="258.054" fill="#353a3d" r="22.023" data-original="#353A3D" class=""/><path d="m205.207 279.51c-1.6.38-3.26.57-4.97.57-12.16 0-22.02-9.86-22.02-22.03 0-12.16 9.86-22.02 22.02-22.02 1.71 0 3.37.2 4.97.57-9.78 2.25-17.06 11-17.06 21.45 0 10.46 7.28 19.21 17.06 21.46z" fill="#202326" data-original="#202326" class=""/><path d="m316.717 279.51c-1.6.38-3.26.57-4.97.57-12.16 0-22.02-9.86-22.02-22.03 0-12.16 9.86-22.02 22.02-22.02 1.71 0 3.37.2 4.97.57-9.78 2.25-17.06 11-17.06 21.45 0 10.46 7.28 19.21 17.06 21.46z" fill="#202326" data-original="#202326" class=""/><circle cx="209.417" cy="254.168" fill="#fff" r="9.437" data-original="#FFF" class=""/></g><path d="m410.7 184.66 2.979 29.548-2.979 21.272c-65.36-41.58-85.183-139.724-85.183-139.724l29.383-27.686c34.03 27.44 55.8 69.47 55.8 116.59z" fill="#da8f35" data-original="#DA8F35" class=""/><path d="m412.667 187.272c0 7.027-.508 13.949-1.509 20.712-10.588-72.09-76.013-127.582-155.163-127.582-8.572 0-16.97.633-25.142 1.912-20.041 3.045-38.801 9.69-55.517 19.196-39.629 22.558-67.855 61.24-74.517 106.422-.988-6.75-1.495-13.646-1.495-20.659 0-53.936 30.469-101.148 76.013-127.055 16.73-9.519 35.489-16.164 55.517-19.209 8.172-1.279 16.57-1.912 25.142-1.912 86.533-.001 156.671 66.341 156.671 148.175z" fill="#407093" data-original="#407093" class=""/><path d="m175.335 60.217v41.292c-39.629 22.558-67.855 61.24-74.517 106.422-.988-6.75-1.495-13.646-1.495-20.659 0-53.936 30.469-101.148 76.012-127.055z" fill="#365e7d" data-original="#365E7D" class=""/><path d="m273.544 286.694h-35.098c-4.181 0-7.57-3.389-7.57-7.57 0-4.181 3.389-7.57 7.57-7.57h35.098c4.181 0 7.57 3.389 7.57 7.57 0 4.18-3.389 7.57-7.57 7.57z" fill="#ffcbbe" data-original="#FFCBBE" class=""/><g><path d="m364.039 308.27c-1.804 0-3.546-.979-4.438-2.689-1.275-2.446-.328-5.463 2.115-6.742.404-.212 40.532-21.769 49.454-68.167.521-2.712 3.14-4.485 5.854-3.966 2.712.521 4.487 3.143 3.966 5.854-9.857 51.263-52.82 74.192-54.645 75.143-.737.384-1.527.567-2.306.567z" fill="#ddeafb" data-original="#DDEAFB" class="" style="fill:#69E781" data-old_color="#ddeafb"/><path d="m147.948 308.269c-.778 0-1.567-.182-2.306-.567-1.824-.951-44.787-23.879-54.645-75.143-.521-2.712 1.254-5.333 3.966-5.854 2.716-.519 5.333 1.254 5.854 3.966 8.922 46.399 49.05 67.955 49.454 68.167 2.441 1.283 3.388 4.302 2.108 6.747-.891 1.707-2.63 2.684-4.431 2.684z" fill="#cbe2ff" data-original="#CBE2FF" class="" style="fill:#69E781" data-old_color="#cbe2ff"/></g><path d="m375.79 357.82c-3.45 20.32-20.5 35.62-41.03 37.42-52.51 4.62-105.02 4.62-157.53 0-20.53-1.8-37.58-17.1-41.03-37.42-3.05-17.95-7.03-42.37-1.06-62.39 1.95-6.51 7.57-11.25 14.32-11.97 25.63-2.73 53.31-4.4 81.46-5.03 16.66-.36 33.49-.36 50.15 0 28.15.63 55.83 2.3 81.46 5.03 6.75.72 12.37 5.46 14.31 11.97 5.98 20.02 2 44.44-1.05 62.39z" fill="#ddeafb" data-original="#DDEAFB" class="" style="fill:#69E781" data-old_color="#ddeafb"/><g fill="#cbe2ff"><path d="m219.406 397.962c-14.06-.57-28.12-1.47-42.18-2.71-20.53-1.81-37.58-17.11-41.03-37.43-3.05-17.95-7.03-42.37-1.06-62.39 1.95-6.51 7.57-11.25 14.32-11.97 15.29-1.63 31.31-2.88 47.72-3.76-2.48 2.33-4.35 5.32-5.37 8.72-6.94 23.28-2.32 51.68 1.23 72.57 2.72 16.05 12.74 29.4 26.37 36.97z" data-original="#CBE2FF" class="" style="fill:#69E781" data-old_color="#CBE2FF"/><g><path d="m336.839 324.964c-.112 0-.225-.003-.338-.011-53.421-3.57-107.594-3.569-161.013 0-2.741.184-5.138-1.9-5.322-4.655s1.9-5.138 4.656-5.322c53.862-3.6 108.484-3.6 162.345 0 2.756.184 4.84 2.567 4.656 5.322-.177 2.641-2.375 4.666-4.984 4.666z" data-original="#000000" class="" style="fill:#000000"/><path d="m343.84 348.011h-175.69c-2.762 0-5-2.239-5-5s2.238-5 5-5h175.69c2.762 0 5 2.239 5 5s-2.238 5-5 5z" data-original="#000000" class="" style="fill:#000000"/><path d="m255.994 373.746c-27.12 0-54.241-.899-81.172-2.699-2.756-.184-4.84-2.567-4.656-5.322.185-2.755 2.583-4.85 5.322-4.655 53.419 3.569 107.592 3.569 161.013 0 2.742-.195 5.138 1.9 5.322 4.655s-1.9 5.138-4.656 5.322c-26.931 1.8-54.052 2.699-81.173 2.699z" data-original="#000000" class="" style="fill:#000000"/></g><path d="m281.11 279.12c0 2.09-.85 3.98-2.22 5.35s-3.26 2.22-5.35 2.22h-35.09c-4.18 0-7.57-3.39-7.57-7.57 0-.23.01-.47.04-.69 16.66-.36 33.49-.36 50.15 0 .03.22.04.46.04.69z" data-original="#CBE2FF" class="" style="fill:#69E781" data-old_color="#CBE2FF"/></g></g></g></g> </svg>
